<svg width="700" height="700" viewBox="0 0 700 700" fill="none" xmlns="http://www.w3.org/2000/svg">
<g clip-path="url(#clip0_2801_544)">
<path d="M351.37 346.164C350.993 346.847 350.039 346.847 349.661 346.164L297.21 251.408C296.836 250.731 297.31 249.888 298.066 249.888L402.966 249.888C403.722 249.888 404.195 250.731 403.82 251.408L351.37 346.164Z" fill="white" stroke="black" stroke-width="2"/>
<path d="M350.516 249.41L350.69 282.451" stroke="black" stroke-width="2"/>
<path d="M298.03 252.903C297.281 251.549 298.2 249.888 299.698 249.888L401.208 249.888C402.731 249.888 403.707 251.598 402.957 252.952L352.203 344.645C351.453 345.999 349.547 345.972 348.785 344.596L298.03 252.903Z" stroke="black" stroke-width="2"/>
<path d="M377.99 299.045L350.626 282.566" stroke="black" stroke-width="2"/>
<path d="M402.948 249.896C403.704 249.896 404.18 250.757 403.802 251.439L351.353 346.197C350.978 346.874 350.042 346.867 349.664 346.185L297.213 251.427C296.836 250.744 297.298 249.896 298.048 249.896L402.948 249.896Z" stroke="black" stroke-width="2"/>
<path d="M323.042 299.045L350.69 282.451" stroke="black" stroke-width="2"/>
<path d="M405.534 445.164C405.156 445.847 404.202 445.847 403.824 445.164L351.374 350.407C350.999 349.73 351.473 348.888 352.229 348.888L457.129 348.888C457.885 348.888 458.358 349.73 457.984 350.407L405.534 445.164Z" fill="white" stroke="black" stroke-width="2"/>
<path d="M404.679 348.41L404.853 381.451" stroke="black" stroke-width="2"/>
<path d="M352.193 351.902C351.444 350.549 352.363 348.888 353.862 348.888L455.372 348.888C456.894 348.888 457.87 350.597 457.12 351.951L406.366 443.644C405.616 444.999 403.71 444.971 402.948 443.596L352.193 351.902Z" stroke="black" stroke-width="2"/>
<path d="M432.153 398.045L404.789 381.566" stroke="black" stroke-width="2"/>
<path d="M457.111 348.896C457.867 348.896 458.343 349.757 457.966 350.439L405.516 445.196C405.141 445.873 404.205 445.867 403.827 445.184L351.376 350.427C350.999 349.744 351.461 348.895 352.211 348.895L457.111 348.896Z" stroke="black" stroke-width="2"/>
<path d="M377.205 398.045L404.853 381.451" stroke="black" stroke-width="2"/>
<path d="M352.709 348.069C351.959 348.069 351.5 347.239 351.875 346.562L404.325 251.805C404.706 251.117 405.659 251.104 406.034 251.78L458.484 346.537C458.859 347.214 458.371 348.069 457.609 348.069L352.709 348.069Z" fill="white" stroke="black" stroke-width="2"/>
<path d="M432.669 298.912L405.322 315.59" stroke="black" stroke-width="2"/>
<path d="M404.319 251.847C404.7 251.16 405.689 251.16 406.069 251.847L458.518 346.6C458.887 347.267 458.404 348.084 457.643 348.084H352.746C351.985 348.084 351.503 347.266 351.872 346.6L404.319 251.847Z" stroke="black" stroke-width="2"/>
<path d="M405.195 348.547V315.59" stroke="black" stroke-width="2"/>
<path d="M458.515 346.562C458.89 347.239 458.43 348.069 457.681 348.069L352.78 348.069C352.019 348.069 351.531 347.214 351.906 346.537L404.356 251.781C404.731 251.104 405.684 251.117 406.065 251.805L458.515 346.562Z" stroke="black" stroke-width="2"/>
<path d="M377.721 298.912L405.322 315.59" stroke="black" stroke-width="2"/>
<path d="M297.514 447.069C296.765 447.068 296.305 446.238 296.68 445.561L349.13 350.804C349.511 350.117 350.464 350.103 350.839 350.78L403.289 445.537C403.664 446.214 403.176 447.068 402.415 447.068L297.514 447.069Z" fill="white" stroke="black" stroke-width="2"/>
<path d="M377.474 397.912L350.127 414.589" stroke="black" stroke-width="2"/>
<path d="M349.125 350.847C349.505 350.159 350.494 350.159 350.875 350.847L403.323 445.6C403.692 446.266 403.21 447.084 402.448 447.084H297.551C296.79 447.084 296.309 446.266 296.677 445.6L349.125 350.847Z" stroke="black" stroke-width="2"/>
<path d="M350 447.546V414.589" stroke="black" stroke-width="2"/>
<path d="M403.32 445.561C403.695 446.238 403.235 447.069 402.486 447.069L297.585 447.069C296.824 447.068 296.336 446.214 296.711 445.537L349.161 350.78C349.536 350.103 350.489 350.117 350.87 350.805L403.32 445.561Z" stroke="black" stroke-width="2"/>
<path d="M322.526 397.912L350.127 414.589" stroke="black" stroke-width="2"/>
<path d="M242.835 348.069C242.086 348.069 241.626 347.239 242.001 346.562L294.451 251.805C294.832 251.117 295.785 251.104 296.16 251.78L348.61 346.537C348.985 347.214 348.497 348.069 347.736 348.069L242.835 348.069Z" stroke="black" stroke-width="2"/>
<path d="M322.795 298.912L295.448 315.59" stroke="black" stroke-width="2"/>
<path d="M294.446 251.847C294.826 251.16 295.815 251.16 296.196 251.847L348.644 346.6C349.013 347.267 348.531 348.084 347.769 348.084H242.872C242.111 348.084 241.63 347.266 241.998 346.6L294.446 251.847Z" stroke="black" stroke-width="2"/>
<path d="M295.321 348.547V315.59" stroke="black" stroke-width="2"/>
<path d="M348.641 346.562C349.016 347.239 348.556 348.069 347.807 348.069L242.906 348.069C242.145 348.069 241.657 347.214 242.032 346.537L294.482 251.781C294.857 251.104 295.81 251.117 296.191 251.805L348.641 346.562Z" stroke="black" stroke-width="2"/>
<path d="M267.847 298.912L295.448 315.59" stroke="black" stroke-width="2"/>
<path d="M242.835 348.069C242.086 348.069 241.626 347.239 242.001 346.562L294.451 251.805C294.832 251.117 295.785 251.104 296.16 251.78L348.61 346.537C348.985 347.214 348.497 348.069 347.736 348.069L242.835 348.069Z" fill="white" stroke="black" stroke-width="2"/>
<path d="M322.795 298.912L295.448 315.59" stroke="black" stroke-width="2"/>
<path d="M294.446 251.847C294.826 251.16 295.815 251.16 296.196 251.847L348.644 346.6C349.013 347.267 348.531 348.084 347.769 348.084H242.872C242.111 348.084 241.63 347.266 241.998 346.6L294.446 251.847Z" stroke="black" stroke-width="2"/>
<path d="M295.321 348.547V315.59" stroke="black" stroke-width="2"/>
<path d="M348.641 346.562C349.016 347.239 348.556 348.069 347.807 348.069L242.906 348.069C242.145 348.069 241.657 347.214 242.032 346.537L294.482 251.781C294.857 251.104 295.81 251.117 296.191 251.805L348.641 346.562Z" stroke="black" stroke-width="2"/>
<path d="M267.847 298.912L295.448 315.59" stroke="black" stroke-width="2"/>
<path d="M296.176 445.164C295.798 445.847 294.844 445.847 294.467 445.164L242.016 350.407C241.641 349.73 242.116 348.888 242.871 348.888L347.772 348.888C348.527 348.888 349 349.73 348.626 350.407L296.176 445.164Z" fill="white" stroke="black" stroke-width="2"/>
<path d="M295.321 348.41L295.495 381.451" stroke="black" stroke-width="2"/>
<path d="M242.835 351.902C242.086 350.549 243.005 348.888 244.504 348.888L346.014 348.888C347.536 348.888 348.512 350.597 347.762 351.951L297.008 443.644C296.258 444.999 294.352 444.971 293.59 443.596L242.835 351.902Z" stroke="black" stroke-width="2"/>
<path d="M322.795 398.045L295.431 381.566" stroke="black" stroke-width="2"/>
<path d="M347.754 348.896C348.509 348.896 348.985 349.757 348.608 350.439L296.158 445.196C295.783 445.873 294.847 445.867 294.469 445.184L242.019 350.427C241.641 349.744 242.104 348.895 242.853 348.895L347.754 348.896Z" stroke="black" stroke-width="2"/>
<path d="M267.847 398.045L295.495 381.451" stroke="black" stroke-width="2"/>
</g>
<g clip-path="url(#clip1_2801_544)">
<path d="M512.37 249.164C511.993 249.847 511.039 249.847 510.661 249.164L458.21 154.408C457.836 153.731 458.31 152.888 459.066 152.888L563.966 152.888C564.722 152.888 565.195 153.731 564.82 154.408L512.37 249.164Z" fill="white" stroke="black" stroke-width="2"/>
<path d="M511.516 152.41L511.69 185.451" stroke="black" stroke-width="2"/>
<path d="M459.03 155.903C458.281 154.549 459.2 152.888 460.698 152.888L562.208 152.888C563.731 152.888 564.707 154.598 563.957 155.952L513.203 247.645C512.453 248.999 510.547 248.972 509.785 247.596L459.03 155.903Z" stroke="black" stroke-width="2"/>
<path d="M538.99 202.045L511.626 185.566" stroke="black" stroke-width="2"/>
<path d="M563.948 152.896C564.704 152.896 565.18 153.757 564.802 154.439L512.353 249.197C511.978 249.874 511.042 249.867 510.664 249.185L458.213 154.427C457.836 153.745 458.298 152.896 459.048 152.896L563.948 152.896Z" stroke="black" stroke-width="2"/>
<path d="M484.042 202.045L511.69 185.452" stroke="black" stroke-width="2"/>
<path d="M566.534 348.164C566.156 348.847 565.202 348.847 564.824 348.164L512.374 253.407C511.999 252.73 512.473 251.888 513.229 251.888L618.129 251.888C618.885 251.888 619.358 252.73 618.984 253.407L566.534 348.164Z" fill="white" stroke="black" stroke-width="2"/>
<path d="M565.679 251.41L565.853 284.451" stroke="black" stroke-width="2"/>
<path d="M513.193 254.902C512.444 253.549 513.363 251.888 514.862 251.888L616.372 251.888C617.894 251.888 618.87 253.597 618.12 254.951L567.366 346.644C566.616 347.999 564.71 347.971 563.948 346.596L513.193 254.902Z" stroke="black" stroke-width="2"/>
<path d="M593.153 301.045L565.789 284.566" stroke="black" stroke-width="2"/>
<path d="M618.111 251.896C618.867 251.896 619.343 252.757 618.966 253.439L566.516 348.196C566.141 348.873 565.205 348.867 564.827 348.184L512.376 253.427C511.999 252.744 512.461 251.895 513.211 251.895L618.111 251.896Z" stroke="black" stroke-width="2"/>
<path d="M538.205 301.045L565.853 284.451" stroke="black" stroke-width="2"/>
<path d="M513.709 251.069C512.959 251.069 512.5 250.239 512.875 249.562L565.325 154.805C565.706 154.117 566.659 154.104 567.034 154.78L619.484 249.537C619.859 250.214 619.371 251.069 618.609 251.069L513.709 251.069Z" fill="white" stroke="black" stroke-width="2"/>
<path d="M593.669 201.912L566.322 218.59" stroke="black" stroke-width="2"/>
<path d="M565.319 154.847C565.7 154.16 566.689 154.16 567.069 154.847L619.518 249.6C619.887 250.267 619.404 251.084 618.643 251.084H513.746C512.985 251.084 512.503 250.266 512.872 249.6L565.319 154.847Z" stroke="black" stroke-width="2"/>
<path d="M566.195 251.547V218.59" stroke="black" stroke-width="2"/>
<path d="M619.515 249.562C619.89 250.239 619.43 251.069 618.681 251.069L513.78 251.069C513.019 251.069 512.531 250.214 512.906 249.537L565.356 154.781C565.731 154.104 566.684 154.117 567.065 154.805L619.515 249.562Z" stroke="black" stroke-width="2"/>
<path d="M538.721 201.912L566.322 218.59" stroke="black" stroke-width="2"/>
<path d="M458.514 350.069C457.765 350.068 457.305 349.238 457.68 348.561L510.13 253.804C510.511 253.117 511.464 253.103 511.839 253.78L564.289 348.537C564.664 349.214 564.176 350.068 563.415 350.069L458.514 350.069Z" fill="white" stroke="black" stroke-width="2"/>
<path d="M538.474 300.912L511.127 317.589" stroke="black" stroke-width="2"/>
<path d="M510.125 253.847C510.505 253.159 511.494 253.159 511.875 253.847L564.323 348.6C564.692 349.266 564.21 350.084 563.448 350.084H458.551C457.79 350.084 457.309 349.266 457.677 348.6L510.125 253.847Z" stroke="black" stroke-width="2"/>
<path d="M511 350.546V317.589" stroke="black" stroke-width="2"/>
<path d="M564.32 348.561C564.695 349.238 564.235 350.069 563.486 350.069L458.585 350.069C457.824 350.068 457.336 349.214 457.711 348.537L510.161 253.78C510.536 253.103 511.489 253.117 511.87 253.805L564.32 348.561Z" stroke="black" stroke-width="2"/>
<path d="M483.526 300.912L511.127 317.589" stroke="black" stroke-width="2"/>
<path d="M403.835 251.069C403.086 251.069 402.626 250.239 403.001 249.562L455.451 154.805C455.832 154.117 456.785 154.104 457.16 154.78L509.61 249.537C509.985 250.214 509.497 251.069 508.736 251.069L403.835 251.069Z" stroke="black" stroke-width="2"/>
<path d="M483.795 201.912L456.448 218.59" stroke="black" stroke-width="2"/>
<path d="M455.446 154.847C455.826 154.16 456.815 154.16 457.196 154.847L509.644 249.6C510.013 250.267 509.531 251.084 508.769 251.084H403.872C403.111 251.084 402.63 250.266 402.998 249.6L455.446 154.847Z" stroke="black" stroke-width="2"/>
<path d="M456.321 251.547V218.59" stroke="black" stroke-width="2"/>
<path d="M509.641 249.562C510.016 250.239 509.556 251.069 508.807 251.069L403.906 251.069C403.145 251.069 402.657 250.214 403.032 249.537L455.482 154.781C455.857 154.104 456.81 154.117 457.191 154.805L509.641 249.562Z" stroke="black" stroke-width="2"/>
<path d="M428.847 201.912L456.448 218.59" stroke="black" stroke-width="2"/>
<path d="M403.835 251.069C403.086 251.069 402.626 250.239 403.001 249.562L455.451 154.805C455.832 154.117 456.785 154.104 457.16 154.78L509.61 249.537C509.985 250.214 509.497 251.069 508.736 251.069L403.835 251.069Z" fill="white" stroke="black" stroke-width="2"/>
<path d="M483.795 201.912L456.448 218.59" stroke="black" stroke-width="2"/>
<path d="M455.446 154.847C455.826 154.16 456.815 154.16 457.196 154.847L509.644 249.6C510.013 250.267 509.531 251.084 508.769 251.084H403.872C403.111 251.084 402.63 250.266 402.998 249.6L455.446 154.847Z" stroke="black" stroke-width="2"/>
<path d="M456.321 251.547V218.59" stroke="black" stroke-width="2"/>
<path d="M509.641 249.562C510.016 250.239 509.556 251.069 508.807 251.069L403.906 251.069C403.145 251.069 402.657 250.214 403.032 249.537L455.482 154.781C455.857 154.104 456.81 154.117 457.191 154.805L509.641 249.562Z" stroke="black" stroke-width="2"/>
<path d="M428.847 201.912L456.448 218.59" stroke="black" stroke-width="2"/>
<path d="M457.176 348.164C456.798 348.847 455.844 348.847 455.467 348.164L403.016 253.407C402.641 252.73 403.116 251.888 403.871 251.888L508.772 251.888C509.527 251.888 510 252.73 509.626 253.407L457.176 348.164Z" fill="white" stroke="black" stroke-width="2"/>
<path d="M456.321 251.41L456.495 284.451" stroke="black" stroke-width="2"/>
<path d="M403.835 254.902C403.086 253.549 404.005 251.888 405.504 251.888L507.014 251.888C508.536 251.888 509.512 253.597 508.762 254.951L458.008 346.644C457.258 347.999 455.352 347.971 454.59 346.596L403.835 254.902Z" stroke="black" stroke-width="2"/>
<path d="M483.795 301.045L456.431 284.566" stroke="black" stroke-width="2"/>
<path d="M508.754 251.896C509.509 251.896 509.985 252.757 509.608 253.439L457.158 348.196C456.783 348.873 455.847 348.867 455.469 348.184L403.019 253.427C402.641 252.744 403.104 251.895 403.853 251.895L508.754 251.896Z" stroke="black" stroke-width="2"/>
<path d="M428.847 301.045L456.495 284.451" stroke="black" stroke-width="2"/>
</g>
<g clip-path="url(#clip2_2801_544)">
<path d="M512.37 444.164C511.993 444.847 511.039 444.847 510.661 444.164L458.21 349.408C457.836 348.731 458.31 347.888 459.066 347.888L563.966 347.888C564.722 347.888 565.195 348.731 564.82 349.408L512.37 444.164Z" fill="white" stroke="black" stroke-width="2"/>
<path d="M511.516 347.41L511.69 380.451" stroke="black" stroke-width="2"/>
<path d="M459.03 350.903C458.281 349.549 459.2 347.888 460.698 347.888L562.208 347.888C563.731 347.888 564.707 349.598 563.957 350.952L513.203 442.645C512.453 443.999 510.547 443.972 509.785 442.596L459.03 350.903Z" stroke="black" stroke-width="2"/>
<path d="M538.99 397.045L511.626 380.566" stroke="black" stroke-width="2"/>
<path d="M563.948 347.896C564.704 347.896 565.18 348.757 564.802 349.439L512.353 444.197C511.978 444.874 511.042 444.867 510.664 444.185L458.213 349.427C457.836 348.744 458.298 347.896 459.048 347.896L563.948 347.896Z" stroke="black" stroke-width="2"/>
<path d="M484.042 397.045L511.69 380.451" stroke="black" stroke-width="2"/>
<path d="M566.534 543.164C566.156 543.847 565.202 543.847 564.824 543.164L512.374 448.407C511.999 447.73 512.473 446.888 513.229 446.888L618.129 446.888C618.885 446.888 619.358 447.73 618.984 448.407L566.534 543.164Z" fill="white" stroke="black" stroke-width="2"/>
<path d="M565.679 446.41L565.853 479.451" stroke="black" stroke-width="2"/>
<path d="M513.193 449.902C512.444 448.549 513.363 446.888 514.862 446.888L616.372 446.888C617.894 446.888 618.87 448.597 618.12 449.951L567.366 541.644C566.616 542.999 564.71 542.971 563.948 541.596L513.193 449.902Z" stroke="black" stroke-width="2"/>
<path d="M593.153 496.045L565.789 479.566" stroke="black" stroke-width="2"/>
<path d="M618.111 446.896C618.867 446.896 619.343 447.757 618.966 448.439L566.516 543.196C566.141 543.873 565.205 543.867 564.827 543.184L512.376 448.427C511.999 447.744 512.461 446.895 513.211 446.895L618.111 446.896Z" stroke="black" stroke-width="2"/>
<path d="M538.205 496.045L565.853 479.451" stroke="black" stroke-width="2"/>
<path d="M513.709 446.069C512.959 446.069 512.5 445.239 512.875 444.562L565.325 349.805C565.706 349.117 566.659 349.104 567.034 349.78L619.484 444.537C619.859 445.214 619.371 446.069 618.609 446.069L513.709 446.069Z" fill="white" stroke="black" stroke-width="2"/>
<path d="M593.669 396.912L566.322 413.59" stroke="black" stroke-width="2"/>
<path d="M565.319 349.847C565.7 349.16 566.689 349.16 567.069 349.847L619.518 444.6C619.887 445.267 619.404 446.084 618.643 446.084H513.746C512.985 446.084 512.503 445.266 512.872 444.6L565.319 349.847Z" stroke="black" stroke-width="2"/>
<path d="M566.195 446.547V413.59" stroke="black" stroke-width="2"/>
<path d="M619.515 444.562C619.89 445.239 619.43 446.069 618.681 446.069L513.78 446.069C513.019 446.069 512.531 445.214 512.906 444.537L565.356 349.781C565.731 349.104 566.684 349.117 567.065 349.805L619.515 444.562Z" stroke="black" stroke-width="2"/>
<path d="M538.721 396.912L566.322 413.59" stroke="black" stroke-width="2"/>
<path d="M458.514 545.069C457.765 545.068 457.305 544.238 457.68 543.561L510.13 448.804C510.511 448.117 511.464 448.103 511.839 448.78L564.289 543.537C564.664 544.214 564.176 545.068 563.415 545.068L458.514 545.069Z" fill="white" stroke="black" stroke-width="2"/>
<path d="M538.474 495.912L511.127 512.589" stroke="black" stroke-width="2"/>
<path d="M510.125 448.847C510.505 448.159 511.494 448.159 511.875 448.847L564.323 543.6C564.692 544.266 564.21 545.084 563.448 545.084H458.551C457.79 545.084 457.309 544.266 457.677 543.6L510.125 448.847Z" stroke="black" stroke-width="2"/>
<path d="M511 545.546V512.589" stroke="black" stroke-width="2"/>
<path d="M564.32 543.561C564.695 544.238 564.235 545.069 563.486 545.069L458.585 545.069C457.824 545.068 457.336 544.214 457.711 543.537L510.161 448.78C510.536 448.103 511.489 448.117 511.87 448.805L564.32 543.561Z" stroke="black" stroke-width="2"/>
<path d="M483.526 495.912L511.127 512.589" stroke="black" stroke-width="2"/>
<path d="M403.835 446.069C403.086 446.069 402.626 445.239 403.001 444.562L455.451 349.805C455.832 349.117 456.785 349.104 457.16 349.78L509.61 444.537C509.985 445.214 509.497 446.069 508.736 446.069L403.835 446.069Z" stroke="black" stroke-width="2"/>
<path d="M483.795 396.912L456.448 413.59" stroke="black" stroke-width="2"/>
<path d="M455.446 349.847C455.826 349.16 456.815 349.16 457.196 349.847L509.644 444.6C510.013 445.267 509.531 446.084 508.769 446.084H403.872C403.111 446.084 402.63 445.266 402.998 444.6L455.446 349.847Z" stroke="black" stroke-width="2"/>
<path d="M456.321 446.547V413.59" stroke="black" stroke-width="2"/>
<path d="M509.641 444.562C510.016 445.239 509.556 446.069 508.807 446.069L403.906 446.069C403.145 446.069 402.657 445.214 403.032 444.537L455.482 349.781C455.857 349.104 456.81 349.117 457.191 349.805L509.641 444.562Z" stroke="black" stroke-width="2"/>
<path d="M428.847 396.912L456.448 413.59" stroke="black" stroke-width="2"/>
<path d="M403.835 446.069C403.086 446.069 402.626 445.239 403.001 444.562L455.451 349.805C455.832 349.117 456.785 349.104 457.16 349.78L509.61 444.537C509.985 445.214 509.497 446.069 508.736 446.069L403.835 446.069Z" fill="white" stroke="black" stroke-width="2"/>
<path d="M483.795 396.912L456.448 413.59" stroke="black" stroke-width="2"/>
<path d="M455.446 349.847C455.826 349.16 456.815 349.16 457.196 349.847L509.644 444.6C510.013 445.267 509.531 446.084 508.769 446.084H403.872C403.111 446.084 402.63 445.266 402.998 444.6L455.446 349.847Z" stroke="black" stroke-width="2"/>
<path d="M456.321 446.547V413.59" stroke="black" stroke-width="2"/>
<path d="M509.641 444.562C510.016 445.239 509.556 446.069 508.807 446.069L403.906 446.069C403.145 446.069 402.657 445.214 403.032 444.537L455.482 349.781C455.857 349.104 456.81 349.117 457.191 349.805L509.641 444.562Z" stroke="black" stroke-width="2"/>
<path d="M428.847 396.912L456.448 413.59" stroke="black" stroke-width="2"/>
<path d="M457.176 543.164C456.798 543.847 455.844 543.847 455.467 543.164L403.016 448.407C402.641 447.73 403.116 446.888 403.871 446.888L508.772 446.888C509.527 446.888 510 447.73 509.626 448.407L457.176 543.164Z" fill="white" stroke="black" stroke-width="2"/>
<path d="M456.321 446.41L456.495 479.451" stroke="black" stroke-width="2"/>
<path d="M403.835 449.902C403.086 448.549 404.005 446.888 405.504 446.888L507.014 446.888C508.536 446.888 509.512 448.597 508.762 449.951L458.008 541.644C457.258 542.999 455.352 542.971 454.59 541.596L403.835 449.902Z" stroke="black" stroke-width="2"/>
<path d="M483.795 496.045L456.431 479.566" stroke="black" stroke-width="2"/>
<path d="M508.754 446.896C509.509 446.896 509.985 447.757 509.608 448.439L457.158 543.196C456.783 543.873 455.847 543.867 455.469 543.184L403.019 448.427C402.641 447.744 403.104 446.895 403.853 446.895L508.754 446.896Z" stroke="black" stroke-width="2"/>
<path d="M428.847 496.045L456.495 479.451" stroke="black" stroke-width="2"/>
</g>
<g clip-path="url(#clip3_2801_544)">
<path d="M350.37 543.164C349.993 543.847 349.039 543.847 348.661 543.164L296.21 448.408C295.836 447.731 296.31 446.888 297.066 446.888L401.966 446.888C402.722 446.888 403.195 447.731 402.82 448.408L350.37 543.164Z" fill="white" stroke="black" stroke-width="2"/>
<path d="M349.516 446.41L349.69 479.451" stroke="black" stroke-width="2"/>
<path d="M297.03 449.903C296.281 448.549 297.2 446.888 298.698 446.888L400.208 446.888C401.731 446.888 402.707 448.598 401.957 449.952L351.203 541.645C350.453 542.999 348.547 542.972 347.785 541.596L297.03 449.903Z" stroke="black" stroke-width="2"/>
<path d="M376.99 496.045L349.626 479.566" stroke="black" stroke-width="2"/>
<path d="M401.948 446.896C402.704 446.896 403.18 447.757 402.802 448.439L350.353 543.197C349.978 543.874 349.042 543.867 348.664 543.185L296.213 448.427C295.836 447.744 296.298 446.896 297.048 446.896L401.948 446.896Z" stroke="black" stroke-width="2"/>
<path d="M322.042 496.045L349.69 479.451" stroke="black" stroke-width="2"/>
<path d="M404.534 642.164C404.156 642.847 403.202 642.847 402.824 642.164L350.374 547.407C349.999 546.73 350.473 545.888 351.229 545.888L456.129 545.888C456.885 545.888 457.358 546.73 456.984 547.407L404.534 642.164Z" fill="white" stroke="black" stroke-width="2"/>
<path d="M403.679 545.41L403.853 578.451" stroke="black" stroke-width="2"/>
<path d="M351.193 548.902C350.444 547.549 351.363 545.888 352.862 545.888L454.372 545.888C455.894 545.888 456.87 547.597 456.12 548.951L405.366 640.644C404.616 641.999 402.71 641.971 401.948 640.596L351.193 548.902Z" stroke="black" stroke-width="2"/>
<path d="M431.153 595.045L403.789 578.566" stroke="black" stroke-width="2"/>
<path d="M456.111 545.896C456.867 545.896 457.343 546.757 456.966 547.439L404.516 642.196C404.141 642.873 403.205 642.867 402.827 642.184L350.376 547.427C349.999 546.744 350.461 545.895 351.211 545.895L456.111 545.896Z" stroke="black" stroke-width="2"/>
<path d="M376.205 595.045L403.853 578.451" stroke="black" stroke-width="2"/>
<path d="M351.709 545.069C350.959 545.069 350.5 544.239 350.875 543.562L403.325 448.805C403.706 448.117 404.659 448.104 405.034 448.78L457.484 543.537C457.859 544.214 457.371 545.069 456.609 545.069L351.709 545.069Z" fill="white" stroke="black" stroke-width="2"/>
<path d="M431.669 495.912L404.322 512.59" stroke="black" stroke-width="2"/>
<path d="M403.319 448.847C403.7 448.16 404.689 448.16 405.069 448.847L457.518 543.6C457.887 544.267 457.404 545.084 456.643 545.084H351.746C350.985 545.084 350.503 544.266 350.872 543.6L403.319 448.847Z" stroke="black" stroke-width="2"/>
<path d="M404.195 545.547V512.59" stroke="black" stroke-width="2"/>
<path d="M457.515 543.562C457.89 544.239 457.43 545.069 456.681 545.069L351.78 545.069C351.019 545.069 350.531 544.214 350.906 543.537L403.356 448.781C403.731 448.104 404.684 448.117 405.065 448.805L457.515 543.562Z" stroke="black" stroke-width="2"/>
<path d="M376.721 495.912L404.322 512.59" stroke="black" stroke-width="2"/>
<path d="M296.514 644.069C295.765 644.068 295.305 643.238 295.68 642.561L348.13 547.804C348.511 547.117 349.464 547.103 349.839 547.78L402.289 642.537C402.664 643.214 402.176 644.068 401.415 644.068L296.514 644.069Z" fill="white" stroke="black" stroke-width="2"/>
<path d="M376.474 594.912L349.127 611.589" stroke="black" stroke-width="2"/>
<path d="M348.125 547.847C348.505 547.159 349.494 547.159 349.875 547.847L402.323 642.6C402.692 643.266 402.21 644.084 401.448 644.084H296.551C295.79 644.084 295.309 643.266 295.677 642.6L348.125 547.847Z" stroke="black" stroke-width="2"/>
<path d="M349 644.546V611.589" stroke="black" stroke-width="2"/>
<path d="M402.32 642.561C402.695 643.238 402.235 644.069 401.486 644.069L296.585 644.069C295.824 644.068 295.336 643.214 295.711 642.537L348.161 547.78C348.536 547.103 349.489 547.117 349.87 547.805L402.32 642.561Z" stroke="black" stroke-width="2"/>
<path d="M321.526 594.912L349.127 611.589" stroke="black" stroke-width="2"/>
<path d="M241.835 545.069C241.086 545.069 240.626 544.239 241.001 543.562L293.451 448.805C293.832 448.117 294.785 448.104 295.16 448.78L347.61 543.537C347.985 544.214 347.497 545.069 346.736 545.069L241.835 545.069Z" stroke="black" stroke-width="2"/>
<path d="M321.795 495.912L294.448 512.59" stroke="black" stroke-width="2"/>
<path d="M293.446 448.847C293.826 448.16 294.815 448.16 295.196 448.847L347.644 543.6C348.013 544.267 347.531 545.084 346.769 545.084H241.872C241.111 545.084 240.63 544.266 240.998 543.6L293.446 448.847Z" stroke="black" stroke-width="2"/>
<path d="M294.321 545.547V512.59" stroke="black" stroke-width="2"/>
<path d="M347.641 543.562C348.016 544.239 347.556 545.069 346.807 545.069L241.906 545.069C241.145 545.069 240.657 544.214 241.032 543.537L293.482 448.781C293.857 448.104 294.81 448.117 295.191 448.805L347.641 543.562Z" stroke="black" stroke-width="2"/>
<path d="M266.847 495.912L294.448 512.59" stroke="black" stroke-width="2"/>
<path d="M241.835 545.069C241.086 545.069 240.626 544.239 241.001 543.562L293.451 448.805C293.832 448.117 294.785 448.104 295.16 448.78L347.61 543.537C347.985 544.214 347.497 545.069 346.736 545.069L241.835 545.069Z" fill="white" stroke="black" stroke-width="2"/>
<path d="M321.795 495.912L294.448 512.59" stroke="black" stroke-width="2"/>
<path d="M293.446 448.847C293.826 448.16 294.815 448.16 295.196 448.847L347.644 543.6C348.013 544.267 347.531 545.084 346.769 545.084H241.872C241.111 545.084 240.63 544.266 240.998 543.6L293.446 448.847Z" stroke="black" stroke-width="2"/>
<path d="M294.321 545.547V512.59" stroke="black" stroke-width="2"/>
<path d="M347.641 543.562C348.016 544.239 347.556 545.069 346.807 545.069L241.906 545.069C241.145 545.069 240.657 544.214 241.032 543.537L293.482 448.781C293.857 448.104 294.81 448.117 295.191 448.805L347.641 543.562Z" stroke="black" stroke-width="2"/>
<path d="M266.847 495.912L294.448 512.59" stroke="black" stroke-width="2"/>
<path d="M295.176 642.164C294.798 642.847 293.844 642.847 293.467 642.164L241.016 547.407C240.641 546.73 241.116 545.888 241.871 545.888L346.772 545.888C347.527 545.888 348 546.73 347.626 547.407L295.176 642.164Z" fill="white" stroke="black" stroke-width="2"/>
<path d="M294.321 545.41L294.495 578.451" stroke="black" stroke-width="2"/>
<path d="M241.835 548.902C241.086 547.549 242.005 545.888 243.504 545.888L345.014 545.888C346.536 545.888 347.512 547.597 346.762 548.951L296.008 640.644C295.258 641.999 293.352 641.971 292.59 640.596L241.835 548.902Z" stroke="black" stroke-width="2"/>
<path d="M321.795 595.045L294.431 578.566" stroke="black" stroke-width="2"/>
<path d="M346.754 545.896C347.509 545.896 347.985 546.757 347.608 547.439L295.158 642.196C294.783 642.873 293.847 642.867 293.469 642.184L241.019 547.427C240.641 546.744 241.104 545.895 241.853 545.895L346.754 545.896Z" stroke="black" stroke-width="2"/>
<path d="M266.847 595.045L294.495 578.451" stroke="black" stroke-width="2"/>
</g>
<g clip-path="url(#clip4_2801_544)">
<path d="M188.37 446.164C187.993 446.847 187.039 446.847 186.661 446.164L134.21 351.408C133.836 350.731 134.31 349.888 135.066 349.888L239.966 349.888C240.722 349.888 241.195 350.731 240.82 351.408L188.37 446.164Z" fill="white" stroke="black" stroke-width="2"/>
<path d="M187.516 349.41L187.69 382.451" stroke="black" stroke-width="2"/>
<path d="M135.03 352.903C134.281 351.549 135.2 349.888 136.698 349.888L238.208 349.888C239.731 349.888 240.707 351.598 239.957 352.952L189.203 444.645C188.453 445.999 186.547 445.972 185.785 444.596L135.03 352.903Z" stroke="black" stroke-width="2"/>
<path d="M214.99 399.045L187.626 382.566" stroke="black" stroke-width="2"/>
<path d="M239.948 349.896C240.704 349.896 241.18 350.757 240.802 351.439L188.353 446.197C187.978 446.874 187.042 446.867 186.664 446.185L134.213 351.427C133.836 350.744 134.298 349.896 135.048 349.896L239.948 349.896Z" stroke="black" stroke-width="2"/>
<path d="M160.042 399.045L187.69 382.451" stroke="black" stroke-width="2"/>
<path d="M242.534 545.164C242.156 545.847 241.202 545.847 240.824 545.164L188.374 450.407C187.999 449.73 188.473 448.888 189.229 448.888L294.129 448.888C294.885 448.888 295.358 449.73 294.984 450.407L242.534 545.164Z" fill="white" stroke="black" stroke-width="2"/>
<path d="M241.679 448.41L241.853 481.451" stroke="black" stroke-width="2"/>
<path d="M189.193 451.902C188.444 450.549 189.363 448.888 190.862 448.888L292.372 448.888C293.894 448.888 294.87 450.597 294.12 451.951L243.366 543.644C242.616 544.999 240.71 544.971 239.948 543.596L189.193 451.902Z" stroke="black" stroke-width="2"/>
<path d="M269.153 498.045L241.789 481.566" stroke="black" stroke-width="2"/>
<path d="M294.111 448.896C294.867 448.896 295.343 449.757 294.966 450.439L242.516 545.196C242.141 545.873 241.205 545.867 240.827 545.184L188.376 450.427C187.999 449.744 188.461 448.895 189.211 448.895L294.111 448.896Z" stroke="black" stroke-width="2"/>
<path d="M214.205 498.045L241.853 481.451" stroke="black" stroke-width="2"/>
<path d="M189.709 448.069C188.959 448.069 188.5 447.239 188.875 446.562L241.325 351.805C241.706 351.117 242.659 351.104 243.034 351.78L295.484 446.537C295.859 447.214 295.371 448.069 294.609 448.069L189.709 448.069Z" fill="white" stroke="black" stroke-width="2"/>
<path d="M269.669 398.912L242.322 415.59" stroke="black" stroke-width="2"/>
<path d="M241.319 351.847C241.7 351.16 242.689 351.16 243.069 351.847L295.518 446.6C295.887 447.267 295.404 448.084 294.643 448.084H189.746C188.985 448.084 188.503 447.266 188.872 446.6L241.319 351.847Z" stroke="black" stroke-width="2"/>
<path d="M242.195 448.547L242.195 415.59" stroke="black" stroke-width="2"/>
<path d="M295.515 446.562C295.89 447.239 295.43 448.069 294.681 448.069L189.78 448.069C189.019 448.069 188.531 447.214 188.906 446.537L241.356 351.781C241.731 351.104 242.684 351.117 243.065 351.805L295.515 446.562Z" stroke="black" stroke-width="2"/>
<path d="M214.721 398.912L242.322 415.59" stroke="black" stroke-width="2"/>
<path d="M134.514 547.069C133.765 547.068 133.305 546.238 133.68 545.561L186.13 450.804C186.511 450.117 187.464 450.103 187.839 450.78L240.289 545.537C240.664 546.214 240.176 547.068 239.415 547.068L134.514 547.069Z" fill="white" stroke="black" stroke-width="2"/>
<path d="M214.474 497.912L187.127 514.589" stroke="black" stroke-width="2"/>
<path d="M186.125 450.847C186.505 450.159 187.494 450.159 187.875 450.847L240.323 545.6C240.692 546.266 240.21 547.084 239.448 547.084H134.551C133.79 547.084 133.309 546.266 133.677 545.6L186.125 450.847Z" stroke="black" stroke-width="2"/>
<path d="M187 547.546L187 514.589" stroke="black" stroke-width="2"/>
<path d="M240.32 545.561C240.695 546.238 240.235 547.069 239.486 547.069L134.585 547.069C133.824 547.068 133.336 546.214 133.711 545.537L186.161 450.78C186.536 450.103 187.489 450.117 187.87 450.805L240.32 545.561Z" stroke="black" stroke-width="2"/>
<path d="M159.526 497.912L187.127 514.589" stroke="black" stroke-width="2"/>
<path d="M79.835 448.069C79.0856 448.069 78.6261 447.239 79.0007 446.562L131.451 351.805C131.832 351.117 132.785 351.104 133.16 351.78L185.61 446.537C185.985 447.214 185.497 448.069 184.736 448.069L79.835 448.069Z" stroke="black" stroke-width="2"/>
<path d="M159.795 398.912L132.448 415.59" stroke="black" stroke-width="2"/>
<path d="M131.446 351.847C131.826 351.16 132.815 351.16 133.196 351.847L185.644 446.6C186.013 447.267 185.531 448.084 184.769 448.084H79.8724C79.1109 448.084 78.6296 447.266 78.9984 446.6L131.446 351.847Z" stroke="black" stroke-width="2"/>
<path d="M132.321 448.547L132.321 415.59" stroke="black" stroke-width="2"/>
<path d="M185.641 446.562C186.016 447.239 185.556 448.069 184.807 448.069L79.9064 448.069C79.1452 448.069 78.6573 447.214 79.0319 446.537L131.482 351.781C131.857 351.104 132.81 351.117 133.191 351.805L185.641 446.562Z" stroke="black" stroke-width="2"/>
<path d="M104.847 398.912L132.448 415.59" stroke="black" stroke-width="2"/>
<path d="M79.835 448.069C79.0856 448.069 78.6261 447.239 79.0007 446.562L131.451 351.805C131.832 351.117 132.785 351.104 133.16 351.78L185.61 446.537C185.985 447.214 185.497 448.069 184.736 448.069L79.835 448.069Z" fill="white" stroke="black" stroke-width="2"/>
<path d="M159.795 398.912L132.448 415.59" stroke="black" stroke-width="2"/>
<path d="M131.446 351.847C131.826 351.16 132.815 351.16 133.196 351.847L185.644 446.6C186.013 447.267 185.531 448.084 184.769 448.084H79.8724C79.1109 448.084 78.6296 447.266 78.9984 446.6L131.446 351.847Z" stroke="black" stroke-width="2"/>
<path d="M132.321 448.547L132.321 415.59" stroke="black" stroke-width="2"/>
<path d="M185.641 446.562C186.016 447.239 185.556 448.069 184.807 448.069L79.9064 448.069C79.1452 448.069 78.6573 447.214 79.0319 446.537L131.482 351.781C131.857 351.104 132.81 351.117 133.191 351.805L185.641 446.562Z" stroke="black" stroke-width="2"/>
<path d="M104.847 398.912L132.448 415.59" stroke="black" stroke-width="2"/>
<path d="M133.176 545.164C132.798 545.847 131.844 545.847 131.467 545.164L79.0158 450.407C78.641 449.73 79.1155 448.888 79.8709 448.888L184.772 448.888C185.527 448.888 186 449.73 185.626 450.407L133.176 545.164Z" fill="white" stroke="black" stroke-width="2"/>
<path d="M132.321 448.41L132.495 481.451" stroke="black" stroke-width="2"/>
<path d="M79.8353 451.902C79.0859 450.549 80.005 448.888 81.5038 448.888L183.014 448.888C184.536 448.888 185.512 450.597 184.762 451.951L134.008 543.644C133.258 544.999 131.352 544.971 130.59 543.596L79.8353 451.902Z" stroke="black" stroke-width="2"/>
<path d="M159.795 498.045L132.431 481.566" stroke="black" stroke-width="2"/>
<path d="M184.754 448.896C185.509 448.896 185.985 449.757 185.608 450.439L133.158 545.196C132.783 545.873 131.847 545.867 131.469 545.184L79.0185 450.427C78.6411 449.744 79.1035 448.895 79.8529 448.895L184.754 448.896Z" stroke="black" stroke-width="2"/>
<path d="M104.847 498.045L132.495 481.451" stroke="black" stroke-width="2"/>
</g>
<g clip-path="url(#clip5_2801_544)">
<path d="M189.37 248.164C188.993 248.847 188.039 248.847 187.661 248.164L135.21 153.408C134.836 152.731 135.31 151.888 136.066 151.888L240.966 151.888C241.722 151.888 242.195 152.731 241.82 153.408L189.37 248.164Z" fill="white" stroke="black" stroke-width="2"/>
<path d="M188.516 151.41L188.69 184.451" stroke="black" stroke-width="2"/>
<path d="M136.03 154.903C135.281 153.549 136.2 151.888 137.698 151.888L239.208 151.888C240.731 151.888 241.707 153.598 240.957 154.952L190.203 246.645C189.453 247.999 187.547 247.972 186.785 246.596L136.03 154.903Z" stroke="black" stroke-width="2"/>
<path d="M215.99 201.045L188.626 184.566" stroke="black" stroke-width="2"/>
<path d="M240.948 151.896C241.704 151.896 242.18 152.757 241.802 153.439L189.353 248.197C188.978 248.874 188.042 248.867 187.664 248.185L135.213 153.427C134.836 152.745 135.298 151.896 136.048 151.896L240.948 151.896Z" stroke="black" stroke-width="2"/>
<path d="M161.042 201.045L188.69 184.452" stroke="black" stroke-width="2"/>
<path d="M243.534 347.164C243.156 347.847 242.202 347.847 241.824 347.164L189.374 252.407C188.999 251.73 189.473 250.888 190.229 250.888L295.129 250.888C295.885 250.888 296.358 251.73 295.984 252.407L243.534 347.164Z" fill="white" stroke="black" stroke-width="2"/>
<path d="M242.679 250.41L242.853 283.451" stroke="black" stroke-width="2"/>
<path d="M190.193 253.902C189.444 252.549 190.363 250.888 191.862 250.888L293.372 250.888C294.894 250.888 295.87 252.597 295.12 253.951L244.366 345.644C243.616 346.999 241.71 346.971 240.948 345.596L190.193 253.902Z" stroke="black" stroke-width="2"/>
<path d="M270.153 300.045L242.789 283.566" stroke="black" stroke-width="2"/>
<path d="M295.111 250.896C295.867 250.896 296.343 251.757 295.966 252.439L243.516 347.196C243.141 347.873 242.205 347.867 241.827 347.184L189.376 252.427C188.999 251.744 189.461 250.895 190.211 250.895L295.111 250.896Z" stroke="black" stroke-width="2"/>
<path d="M215.205 300.045L242.853 283.451" stroke="black" stroke-width="2"/>
<path d="M190.709 250.069C189.959 250.069 189.5 249.239 189.875 248.562L242.325 153.805C242.706 153.117 243.659 153.104 244.034 153.78L296.484 248.537C296.859 249.214 296.371 250.069 295.609 250.069L190.709 250.069Z" fill="white" stroke="black" stroke-width="2"/>
<path d="M270.669 200.912L243.322 217.59" stroke="black" stroke-width="2"/>
<path d="M242.319 153.847C242.7 153.16 243.689 153.16 244.069 153.847L296.518 248.6C296.887 249.267 296.404 250.084 295.643 250.084H190.746C189.985 250.084 189.503 249.266 189.872 248.6L242.319 153.847Z" stroke="black" stroke-width="2"/>
<path d="M243.195 250.547L243.195 217.59" stroke="black" stroke-width="2"/>
<path d="M296.515 248.562C296.89 249.239 296.43 250.069 295.681 250.069L190.78 250.069C190.019 250.069 189.531 249.214 189.906 248.537L242.356 153.781C242.731 153.104 243.684 153.117 244.065 153.805L296.515 248.562Z" stroke="black" stroke-width="2"/>
<path d="M215.721 200.912L243.322 217.59" stroke="black" stroke-width="2"/>
<path d="M135.514 349.069C134.765 349.068 134.305 348.238 134.68 347.561L187.13 252.804C187.511 252.117 188.464 252.103 188.839 252.78L241.289 347.537C241.664 348.214 241.176 349.068 240.415 349.069L135.514 349.069Z" fill="white" stroke="black" stroke-width="2"/>
<path d="M215.474 299.912L188.127 316.589" stroke="black" stroke-width="2"/>
<path d="M187.125 252.847C187.505 252.159 188.494 252.159 188.875 252.847L241.323 347.6C241.692 348.266 241.21 349.084 240.448 349.084H135.551C134.79 349.084 134.309 348.266 134.677 347.6L187.125 252.847Z" stroke="black" stroke-width="2"/>
<path d="M188 349.546L188 316.589" stroke="black" stroke-width="2"/>
<path d="M241.32 347.561C241.695 348.238 241.235 349.069 240.486 349.069L135.585 349.069C134.824 349.068 134.336 348.214 134.711 347.537L187.161 252.78C187.536 252.103 188.489 252.117 188.87 252.805L241.32 347.561Z" stroke="black" stroke-width="2"/>
<path d="M160.526 299.912L188.127 316.589" stroke="black" stroke-width="2"/>
<path d="M80.835 250.069C80.0856 250.069 79.6261 249.239 80.0007 248.562L132.451 153.805C132.832 153.117 133.785 153.104 134.16 153.78L186.61 248.537C186.985 249.214 186.497 250.069 185.736 250.069L80.835 250.069Z" stroke="black" stroke-width="2"/>
<path d="M160.795 200.912L133.448 217.59" stroke="black" stroke-width="2"/>
<path d="M132.446 153.847C132.826 153.16 133.815 153.16 134.196 153.847L186.644 248.6C187.013 249.267 186.531 250.084 185.769 250.084H80.8724C80.1109 250.084 79.6296 249.266 79.9984 248.6L132.446 153.847Z" stroke="black" stroke-width="2"/>
<path d="M133.321 250.547L133.321 217.59" stroke="black" stroke-width="2"/>
<path d="M186.641 248.562C187.016 249.239 186.556 250.069 185.807 250.069L80.9064 250.069C80.1452 250.069 79.6573 249.214 80.0319 248.537L132.482 153.781C132.857 153.104 133.81 153.117 134.191 153.805L186.641 248.562Z" stroke="black" stroke-width="2"/>
<path d="M105.847 200.912L133.448 217.59" stroke="black" stroke-width="2"/>
<path d="M80.835 250.069C80.0856 250.069 79.6261 249.239 80.0007 248.562L132.451 153.805C132.832 153.117 133.785 153.104 134.16 153.78L186.61 248.537C186.985 249.214 186.497 250.069 185.736 250.069L80.835 250.069Z" fill="white" stroke="black" stroke-width="2"/>
<path d="M160.795 200.912L133.448 217.59" stroke="black" stroke-width="2"/>
<path d="M132.446 153.847C132.826 153.16 133.815 153.16 134.196 153.847L186.644 248.6C187.013 249.267 186.531 250.084 185.769 250.084H80.8724C80.1109 250.084 79.6296 249.266 79.9984 248.6L132.446 153.847Z" stroke="black" stroke-width="2"/>
<path d="M133.321 250.547L133.321 217.59" stroke="black" stroke-width="2"/>
<path d="M186.641 248.562C187.016 249.239 186.556 250.069 185.807 250.069L80.9064 250.069C80.1452 250.069 79.6573 249.214 80.0319 248.537L132.482 153.781C132.857 153.104 133.81 153.117 134.191 153.805L186.641 248.562Z" stroke="black" stroke-width="2"/>
<path d="M105.847 200.912L133.448 217.59" stroke="black" stroke-width="2"/>
<path d="M134.176 347.164C133.798 347.847 132.844 347.847 132.467 347.164L80.0158 252.407C79.641 251.73 80.1155 250.888 80.8709 250.888L185.772 250.888C186.527 250.888 187 251.73 186.626 252.407L134.176 347.164Z" fill="white" stroke="black" stroke-width="2"/>
<path d="M133.321 250.41L133.495 283.451" stroke="black" stroke-width="2"/>
<path d="M80.8353 253.902C80.0859 252.549 81.005 250.888 82.5038 250.888L184.014 250.888C185.536 250.888 186.512 252.597 185.762 253.951L135.008 345.644C134.258 346.999 132.352 346.971 131.59 345.596L80.8353 253.902Z" stroke="black" stroke-width="2"/>
<path d="M160.795 300.045L133.431 283.566" stroke="black" stroke-width="2"/>
<path d="M185.754 250.896C186.509 250.896 186.985 251.757 186.608 252.439L134.158 347.196C133.783 347.873 132.847 347.867 132.469 347.184L80.0185 252.427C79.6411 251.744 80.1035 250.895 80.8529 250.895L185.754 250.896Z" stroke="black" stroke-width="2"/>
<path d="M105.847 300.045L133.495 283.451" stroke="black" stroke-width="2"/>
</g>
<g clip-path="url(#clip6_2801_544)">
<path d="M351.37 150.164C350.993 150.847 350.039 150.847 349.661 150.164L297.21 55.4076C296.836 54.7306 297.31 53.8883 298.066 53.8883L402.966 53.8883C403.722 53.8883 404.195 54.7306 403.82 55.4076L351.37 150.164Z" fill="white" stroke="black" stroke-width="2"/>
<path d="M350.516 53.4105L350.69 86.4515" stroke="black" stroke-width="2"/>
<path d="M298.03 56.9026C297.281 55.5487 298.2 53.8883 299.698 53.8883L401.208 53.8879C402.731 53.8883 403.707 55.5976 402.957 56.9516L352.203 148.645C351.453 149.999 349.547 149.972 348.785 148.596L298.03 56.9026Z" stroke="black" stroke-width="2"/>
<path d="M377.99 103.045L350.626 86.5665" stroke="black" stroke-width="2"/>
<path d="M402.948 53.8961C403.704 53.8961 404.18 54.7569 403.802 55.4393L351.353 150.197C350.978 150.874 350.042 150.867 349.664 150.185L297.213 55.4268C296.836 54.7445 297.298 53.8956 298.048 53.8956L402.948 53.8961Z" stroke="black" stroke-width="2"/>
<path d="M323.042 103.045L350.69 86.4515" stroke="black" stroke-width="2"/>
<path d="M405.534 249.164C405.156 249.847 404.202 249.847 403.824 249.164L351.374 154.407C350.999 153.73 351.473 152.888 352.229 152.888L457.129 152.888C457.885 152.888 458.358 153.73 457.984 154.407L405.534 249.164Z" fill="white" stroke="black" stroke-width="2"/>
<path d="M404.679 152.41L404.853 185.451" stroke="black" stroke-width="2"/>
<path d="M352.193 155.902C351.444 154.549 352.363 152.888 353.862 152.888L455.372 152.888C456.894 152.888 457.87 154.597 457.12 155.951L406.366 247.644C405.616 248.999 403.71 248.971 402.948 247.596L352.193 155.902Z" stroke="black" stroke-width="2"/>
<path d="M432.153 202.045L404.789 185.566" stroke="black" stroke-width="2"/>
<path d="M457.111 152.896C457.867 152.896 458.343 153.757 457.966 154.439L405.516 249.196C405.141 249.873 404.205 249.867 403.827 249.184L351.376 154.427C350.999 153.744 351.461 152.895 352.211 152.895L457.111 152.896Z" stroke="black" stroke-width="2"/>
<path d="M377.205 202.045L404.853 185.451" stroke="black" stroke-width="2"/>
<path d="M352.709 152.069C351.959 152.069 351.5 151.239 351.875 150.562L404.325 55.8047C404.706 55.1171 405.659 55.1035 406.034 55.7804L458.484 150.537C458.859 151.214 458.371 152.069 457.609 152.069L352.709 152.069Z" fill="white" stroke="black" stroke-width="2"/>
<path d="M432.669 102.912L405.322 119.59" stroke="black" stroke-width="2"/>
<path d="M404.319 55.8471C404.7 55.1596 405.689 55.1596 406.069 55.8471L458.518 150.6C458.887 151.267 458.404 152.084 457.643 152.084H352.746C351.985 152.084 351.503 151.266 351.872 150.6L404.319 55.8471Z" stroke="black" stroke-width="2"/>
<path d="M405.195 152.547V119.59" stroke="black" stroke-width="2"/>
<path d="M458.515 150.562C458.89 151.239 458.43 152.069 457.681 152.069L352.78 152.069C352.019 152.069 351.531 151.214 351.906 150.537L404.356 55.7805C404.731 55.1036 405.684 55.1172 406.065 55.8048L458.515 150.562Z" stroke="black" stroke-width="2"/>
<path d="M377.721 102.912L405.322 119.59" stroke="black" stroke-width="2"/>
<path d="M297.514 251.069C296.765 251.068 296.305 250.238 296.68 249.561L349.13 154.804C349.511 154.117 350.464 154.103 350.839 154.78L403.289 249.537C403.664 250.214 403.176 251.068 402.415 251.069L297.514 251.069Z" fill="white" stroke="black" stroke-width="2"/>
<path d="M377.474 201.912L350.127 218.589" stroke="black" stroke-width="2"/>
<path d="M349.125 154.847C349.505 154.159 350.494 154.159 350.875 154.847L403.323 249.6C403.692 250.266 403.21 251.084 402.448 251.084H297.551C296.79 251.084 296.309 250.266 296.677 249.6L349.125 154.847Z" stroke="black" stroke-width="2"/>
<path d="M350 251.546V218.589" stroke="black" stroke-width="2"/>
<path d="M403.32 249.561C403.695 250.238 403.235 251.069 402.486 251.069L297.585 251.069C296.824 251.068 296.336 250.214 296.711 249.537L349.161 154.78C349.536 154.103 350.489 154.117 350.87 154.805L403.32 249.561Z" stroke="black" stroke-width="2"/>
<path d="M322.526 201.912L350.127 218.589" stroke="black" stroke-width="2"/>
<path d="M242.835 152.069C242.086 152.069 241.626 151.239 242.001 150.562L294.451 55.8047C294.832 55.1171 295.785 55.1035 296.16 55.7804L348.61 150.537C348.985 151.214 348.497 152.069 347.736 152.069L242.835 152.069Z" stroke="black" stroke-width="2"/>
<path d="M322.795 102.912L295.448 119.59" stroke="black" stroke-width="2"/>
<path d="M294.446 55.8471C294.826 55.1596 295.815 55.1596 296.196 55.8471L348.644 150.6C349.013 151.267 348.531 152.084 347.769 152.084H242.872C242.111 152.084 241.63 151.266 241.998 150.6L294.446 55.8471Z" stroke="black" stroke-width="2"/>
<path d="M295.321 152.547V119.59" stroke="black" stroke-width="2"/>
<path d="M348.641 150.562C349.016 151.239 348.556 152.069 347.807 152.069L242.906 152.069C242.145 152.069 241.657 151.214 242.032 150.537L294.482 55.7805C294.857 55.1036 295.81 55.1172 296.191 55.8048L348.641 150.562Z" stroke="black" stroke-width="2"/>
<path d="M267.847 102.912L295.448 119.59" stroke="black" stroke-width="2"/>
<path d="M242.835 152.069C242.086 152.069 241.626 151.239 242.001 150.562L294.451 55.8047C294.832 55.1171 295.785 55.1035 296.16 55.7804L348.61 150.537C348.985 151.214 348.497 152.069 347.736 152.069L242.835 152.069Z" fill="white" stroke="black" stroke-width="2"/>
<path d="M322.795 102.912L295.448 119.59" stroke="black" stroke-width="2"/>
<path d="M294.446 55.8471C294.826 55.1596 295.815 55.1596 296.196 55.8471L348.644 150.6C349.013 151.267 348.531 152.084 347.769 152.084H242.872C242.111 152.084 241.63 151.266 241.998 150.6L294.446 55.8471Z" stroke="black" stroke-width="2"/>
<path d="M295.321 152.547V119.59" stroke="black" stroke-width="2"/>
<path d="M348.641 150.562C349.016 151.239 348.556 152.069 347.807 152.069L242.906 152.069C242.145 152.069 241.657 151.214 242.032 150.537L294.482 55.7805C294.857 55.1036 295.81 55.1172 296.191 55.8048L348.641 150.562Z" stroke="black" stroke-width="2"/>
<path d="M267.847 102.912L295.448 119.59" stroke="black" stroke-width="2"/>
<path d="M296.176 249.164C295.798 249.847 294.844 249.847 294.467 249.164L242.016 154.407C241.641 153.73 242.116 152.888 242.871 152.888L347.772 152.888C348.527 152.888 349 153.73 348.626 154.407L296.176 249.164Z" fill="white" stroke="black" stroke-width="2"/>
<path d="M295.321 152.41L295.495 185.451" stroke="black" stroke-width="2"/>
<path d="M242.835 155.902C242.086 154.549 243.005 152.888 244.504 152.888L346.014 152.888C347.536 152.888 348.512 154.597 347.762 155.951L297.008 247.644C296.258 248.999 294.352 248.971 293.59 247.596L242.835 155.902Z" stroke="black" stroke-width="2"/>
<path d="M322.795 202.045L295.431 185.566" stroke="black" stroke-width="2"/>
<path d="M347.754 152.896C348.509 152.896 348.985 153.757 348.608 154.439L296.158 249.196C295.783 249.873 294.847 249.867 294.469 249.184L242.019 154.427C241.641 153.744 242.104 152.895 242.853 152.895L347.754 152.896Z" stroke="black" stroke-width="2"/>
<path d="M267.847 202.045L295.495 185.451" stroke="black" stroke-width="2"/>
</g>
<defs>
<clipPath id="clip0_2801_544">
<rect width="240" height="225" fill="white" transform="translate(231 237)"/>
</clipPath>
<clipPath id="clip1_2801_544">
<rect width="240" height="225" fill="white" transform="translate(392 140)"/>
</clipPath>
<clipPath id="clip2_2801_544">
<rect width="240" height="225" fill="white" transform="translate(392 335)"/>
</clipPath>
<clipPath id="clip3_2801_544">
<rect width="240" height="225" fill="white" transform="translate(230 434)"/>
</clipPath>
<clipPath id="clip4_2801_544">
<rect width="240" height="225" fill="white" transform="translate(68 337)"/>
</clipPath>
<clipPath id="clip5_2801_544">
<rect width="240" height="225" fill="white" transform="translate(69 139)"/>
</clipPath>
<clipPath id="clip6_2801_544">
<rect width="240" height="225" fill="white" transform="translate(231 41)"/>
</clipPath>
</defs>
</svg>
